<svg xmlns="http://www.w3.org/2000/svg" width="512" height="512" enable-background="new 0 0 64 64" viewBox="0 0 64 64"><path d="M11 1v12H4c-1.65 0-3 1.35-3 3v8c0 1.65 1.35 3 3 3h7v7.76C9.17 36.23 8 38.48 8 41c0 2.78 1.43 5.23 3.58 6.67C5.47 49.55 1 55.27 1 62v1h30v-1c0-6.74-4.46-12.45-10.6-14.34 1.64-1.07 2.84-2.73 3.34-4.66H63V1zm50 2v6H13V3zM3 24v-8c0-.55.45-1 1-1h16c.55 0 1 .45 1 1v8c0 .55-.45 1-1 1h-3v3.13L12.3 25H4c-.55 0-1-.45-1-1zm15.37 25.22L16 51.6l-2.37-2.38C14.4 49.08 15.2 49 16 49s1.6.08 2.37.22zm-7.93 1.04c.33-.15.65-.3 1-.42L14.58 53l-1.65 1.64zM16 54.4l2.03 2.04L16 59.98l-2.03-3.54zm3.05.24L17.4 53l3.17-3.16c.34.13.67.27 1 .42zM8.7 51.26L14.3 61H8v-4H6v4H3.04c.3-4.05 2.5-7.58 5.67-9.74zM28.97 61H26v-4h-2v4h-6.28l5.57-9.74c3.17 2.16 5.35 5.7 5.66 9.74zM16 47c-3.3 0-6-2.7-6-6s2.7-6 6-6 6 2.7 6 6-2.7 6-6 6zm22-26c0-3.3 2.7-6 6-6s6 2.7 6 6-2.7 6-6 6-6-2.7-6-6zm6 8c.8 0 1.6.08 2.36.23L44 31.59l-2.36-2.37C42.4 29.08 43.2 29 44 29zm4.57.84c.38.15.74.3 1.1.48l-2.02 4.9L45.4 33zm-9.14 0L42.6 33l-2.25 2.23-2.02-4.9c.36-.18.73-.34 1.1-.48zm-2.84 1.5l3.05 7.43L44 34.4l4.35 4.37 3.06-7.43C54.54 33.5 56.65 37 56.96 41H54v-4h-2v4H36v-4h-2v4h-2.95c.3-4 2.42-7.5 5.54-9.66zM58.94 41c-.42-6.3-4.72-11.54-10.53-13.34C50.57 26.23 52 23.79 52 21c0-4.4-3.6-8-8-8s-8 3.6-8 8c0 2.78 1.43 5.23 3.6 6.67-5.83 1.8-10.13 7.04-10.55 13.33H24c0-4.4-3.6-8-8-8-1.06 0-2.07.2-3 .6v-5.73l6 4V27h1c1.65 0 3-1.35 3-3v-8c0-1.65-1.35-3-3-3h-7v-2h48v30zM15 5h2v2h-2zM19 5h2v2h-2zM23 5h2v2h-2zM5 17h14v2H5zM5 21h10v2H5zM17 21h2v2h-2zM37 57h10v2H37zM49 57h2v2h-2zM37 53h14v2H37zM52 49h-7.7L37 44.13V49h-1c-1.65 0-3 1.35-3 3v8c0 1.65 1.35 3 3 3h16c1.65 0 3-1.35 3-3v-8c0-1.65-1.35-3-3-3zm1 11c0 .55-.45 1-1 1H36c-.55 0-1-.45-1-1v-8c0-.55.45-1 1-1h3v-3.13L43.7 51H52c.55 0 1 .45 1 1zM57 13h2v2h-2zM57 17h2v2h-2zM57 21h2v2h-2zM25 13h2v2h-2zM29 13h2v2h-2zM33 13h2v2h-2z"/></svg>